<svg width="195" height="62" viewBox="0 0 195 62" fill="none" xmlns="http://www.w3.org/2000/svg">
<g filter="url(#filter0_d_3_37)">
<g filter="url(#filter1_d_3_37)">
<path d="M4 6H191V54H4V6Z" fill="#FF0000"/>
</g>
<g filter="url(#filter2_i_3_37)">
<path d="M12.4922 11.1797H20.1094L26.6953 26.6016L28.0781 30.4219H28.5234L29.8828 26.6016L36.4688 11.1797H44.0859V48H38.3438V27.7266L38.9531 18.3516H38.6953L29.6016 39.0703H26.9766L17.625 18.3516H17.3672L18.2344 27.7266V48H12.4922V11.1797ZM59.8594 11.1797H67.6172L78.3516 48H72.2578L69.8203 38.8125H58.0078L55.7109 48H49.6406L59.8594 11.1797ZM68.6016 34.2891L64.1016 17.3203H63.4219L59.1562 34.2891H68.6016ZM83.7656 11.1797C84.6406 11.1484 85.4375 11.125 86.1562 11.1094C86.875 11.0781 87.5703 11.0625 88.2422 11.0625C88.9297 11.0469 89.6094 11.0391 90.2812 11.0391C90.9531 11.0391 91.6797 11.0391 92.4609 11.0391C95.0547 11.0391 97.25 11.3203 99.0469 11.8828C100.859 12.4453 102.328 13.2266 103.453 14.2266C104.578 15.2109 105.391 16.3828 105.891 17.7422C106.406 19.1016 106.664 20.5859 106.664 22.1953C106.664 24.6641 106.07 26.8203 104.883 28.6641C103.711 30.4922 101.883 31.8594 99.3984 32.7656L107.367 47.9766H101.039L93.7969 33.8438C93.5156 33.8594 93.2266 33.875 92.9297 33.8906C92.6328 33.8906 92.3281 33.8906 92.0156 33.8906C91.2031 33.8906 90.375 33.8672 89.5312 33.8203V48H83.7656V11.1797ZM89.5312 28.8984C90.125 28.9766 90.6953 29.0391 91.2422 29.0859C91.7891 29.1172 92.3125 29.1328 92.8125 29.1328C94.3438 29.1328 95.6328 28.9609 96.6797 28.6172C97.7266 28.2734 98.5703 27.8047 99.2109 27.2109C99.8516 26.6016 100.312 25.8906 100.594 25.0781C100.875 24.2656 101.016 23.3984 101.016 22.4766C101.016 21.4922 100.859 20.5938 100.547 19.7812C100.234 18.9531 99.7266 18.2422 99.0234 17.6484C98.3203 17.0547 97.4062 16.5938 96.2812 16.2656C95.1719 15.9219 93.8125 15.7422 92.2031 15.7266C91.7812 15.7266 91.3516 15.7344 90.9141 15.75C90.4766 15.7656 90.0156 15.7891 89.5312 15.8203V28.8984ZM109.617 11.1797H115.711L123.328 41.3203H124.148L130.406 11.1797H136.477L127.781 48H119.719L109.617 11.1797ZM142.195 11.1797H161.555V15.8203H147.938V25.9922H158.32V30.6094H147.938V43.2656H162.492V48H142.195V11.1797ZM169.242 11.1797H174.984V43.2656H186.258V48H169.242V11.1797Z" fill="#FFFCFC"/>
</g>
</g>
<defs>
<filter id="filter0_d_3_37" x="-2" y="0" width="199" height="68" filterUnits="userSpaceOnUse" color-interpolation-filters="sRGB">
<feFlood flood-opacity="0" result="BackgroundImageFix"/>
<feColorMatrix in="SourceAlpha" type="matrix" values="0 0 0 0 0 0 0 0 0 0 0 0 0 0 0 0 0 0 127 0" result="hardAlpha"/>
<feOffset dy="4"/>
<feGaussianBlur stdDeviation="2"/>
<feComposite in2="hardAlpha" operator="out"/>
<feColorMatrix type="matrix" values="0 0 0 0 0 0 0 0 0 0 0 0 0 0 0 0 0 0 0.25 0"/>
<feBlend mode="normal" in2="BackgroundImageFix" result="effect1_dropShadow_3_37"/>
<feBlend mode="normal" in="SourceGraphic" in2="effect1_dropShadow_3_37" result="shape"/>
</filter>
<filter id="filter1_d_3_37" x="0" y="6" width="195" height="56" filterUnits="userSpaceOnUse" color-interpolation-filters="sRGB">
<feFlood flood-opacity="0" result="BackgroundImageFix"/>
<feColorMatrix in="SourceAlpha" type="matrix" values="0 0 0 0 0 0 0 0 0 0 0 0 0 0 0 0 0 0 127 0" result="hardAlpha"/>
<feOffset dy="4"/>
<feGaussianBlur stdDeviation="2"/>
<feComposite in2="hardAlpha" operator="out"/>
<feColorMatrix type="matrix" values="0 0 0 0 0 0 0 0 0 0 0 0 0 0 0 0 0 0 0.25 0"/>
<feBlend mode="normal" in2="BackgroundImageFix" result="effect1_dropShadow_3_37"/>
<feBlend mode="normal" in="SourceGraphic" in2="effect1_dropShadow_3_37" result="shape"/>
</filter>
<filter id="filter2_i_3_37" x="12.4922" y="11.0391" width="173.766" height="40.9609" filterUnits="userSpaceOnUse" color-interpolation-filters="sRGB">
<feFlood flood-opacity="0" result="BackgroundImageFix"/>
<feBlend mode="normal" in="SourceGraphic" in2="BackgroundImageFix" result="shape"/>
<feColorMatrix in="SourceAlpha" type="matrix" values="0 0 0 0 0 0 0 0 0 0 0 0 0 0 0 0 0 0 127 0" result="hardAlpha"/>
<feOffset dy="4"/>
<feGaussianBlur stdDeviation="2"/>
<feComposite in2="hardAlpha" operator="arithmetic" k2="-1" k3="1"/>
<feColorMatrix type="matrix" values="0 0 0 0 0 0 0 0 0 0 0 0 0 0 0 0 0 0 0.25 0"/>
<feBlend mode="normal" in2="shape" result="effect1_innerShadow_3_37"/>
</filter>
</defs>
</svg>
